<?xml version="1.0" encoding="utf-8"?>
<!-- Generator: Adobe Illustrator 18.0.0, SVG Export Plug-In . SVG Version: 6.00 Build 0)  -->
<!DOCTYPE svg PUBLIC "-//W3C//DTD SVG 1.1//EN" "http://www.w3.org/Graphics/SVG/1.1/DTD/svg11.dtd">
<svg version="1.1" id="Layer_1" xmlns="http://www.w3.org/2000/svg" xmlns:xlink="http://www.w3.org/1999/xlink" x="0px" y="0px"
	 viewBox="6.9 24.1 86.4 51.6" enable-background="new 6.9 24.1 86.4 51.6" xml:space="preserve">
<g>
	<g>
		<path fill="#333333" d="M90.5,63.8V39.4l2.2-0.8l-2.2-0.8l-0.8-0.3L49.8,24.1l-43,14.7l15.8,5.3l0,0l1.6,0.5l3.8,1.2l0,0l22,7
			l21.9-7l0,0l4.8-1.7l0,0l11.7-3.9v23.1l-3.1,5.8l4.1,6.6l3.9-6.7L90.5,63.8z M89.2,71.7l-1.6-3l1.4-3.1l1.6,3.1L89.2,71.7z"/>
	</g>
	<g>
		<path fill="#333333" d="M49.8,55.8l-20-6.4l-1.1,4.5c-0.2,0.3-0.3,0.8-0.3,1.1c0,3.6,15.8,12.7,20.8,12.7c5,0,22.5-9.1,22.5-12.7
			c0-0.3,0-0.5-0.2-0.8c0-0.2-0.2-0.5-0.2-0.8l-1.1-4.2L49.8,55.8L49.8,55.8z"/>
	</g>
</g>
</svg>
