<?xml version="1.0" encoding="utf-8"?>
<!-- Generator: Adobe Illustrator 18.0.0, SVG Export Plug-In . SVG Version: 6.00 Build 0)  -->
<!DOCTYPE svg PUBLIC "-//W3C//DTD SVG 1.1//EN" "http://www.w3.org/Graphics/SVG/1.1/DTD/svg11.dtd">
<svg version="1.1" id="Layer_1" xmlns="http://www.w3.org/2000/svg" xmlns:xlink="http://www.w3.org/1999/xlink" x="0px" y="0px"
	 viewBox="0 0 67.2 20.6" enable-background="new 0 0 67.2 20.6" xml:space="preserve">
<g>
	<path fill="#333333" d="M35.2,0H23.6l-2.3,1.9l-3.4,2.9l-3.1-2.9L12.6,0H1C0.6,0,0,0.4,0,1s0.6,1,1,1h10.5l6.7,5.7l6.7-5.7h10.5
		c0.6,0,1-0.4,1-1C36.2,0.4,35.8,0,35.2,0z"/>
</g>
<g>
	<path fill="#333333" d="M66.2,0H54.6l-2.3,1.9l-3.4,2.9l-3.1-2.9L43.6,0H32c-0.4,0-1,0.4-1,1s0.6,1,1,1h10.5l6.7,5.7l6.7-5.7h10.5
		c0.6,0,1-0.4,1-1C67.2,0.4,66.8,0,66.2,0z"/>
</g>
<g>
	<path fill="#333333" d="M36.2,19.7c0-0.6-0.4-1-1-1H24.8L18.1,13l-6.7,5.7H1c-0.4,0-1,0.4-1,1s0.6,1,1,1h11.6l2.3-1.9l3.1-2.9
		l3.4,2.9l2.3,1.9h11.6C35.8,20.6,36.2,20.2,36.2,19.7z"/>
</g>
<g>
	<path fill="#333333" d="M67.2,19.7c0-0.6-0.4-1-1-1H55.8L49.1,13l-6.7,5.7H32c-0.4,0-1,0.4-1,1s0.6,1,1,1h11.6l2.3-1.9l3.1-2.9
		l3.4,2.9l2.3,1.9h11.6C66.8,20.6,67.2,20.2,67.2,19.7z"/>
</g>
</svg>
