<?xml version="1.0" encoding="utf-8"?>
<!-- Generator: Adobe Illustrator 18.0.0, SVG Export Plug-In . SVG Version: 6.00 Build 0)  -->
<!DOCTYPE svg PUBLIC "-//W3C//DTD SVG 1.1//EN" "http://www.w3.org/Graphics/SVG/1.1/DTD/svg11.dtd">
<svg version="1.1" id="Layer_1" xmlns="http://www.w3.org/2000/svg" xmlns:xlink="http://www.w3.org/1999/xlink" x="0px" y="0px"
	 viewBox="9.1 9.1 81.7 81.7" enable-background="new 9.1 9.1 81.7 81.7" xml:space="preserve">
<path fill="#333333" d="M89.7,84L57.4,51.7c7.7-10.5,6.9-25.3-2.6-34.8C44.4,6.5,27.4,6.5,17,17S6.5,44.4,17,54.8
	c9.5,9.5,24.3,10.3,34.8,2.6L84,89.7c1.6,1.6,4.1,1.6,5.7,0S91.2,85.5,89.7,84z M49.1,49.1c-7.3,7.3-19.2,7.3-26.5,0
	c-7.3-7.3-7.3-19.2,0-26.5c7.3-7.3,19.2-7.3,26.5,0C56.4,30,56.4,41.8,49.1,49.1z M47.3,33c1.5,0,2.7,1.2,2.7,2.7s-1.2,2.7-2.7,2.7
	h-23c-1.5,0-2.7-1.2-2.7-2.7s1.2-2.7,2.7-2.7H47.3z"/>
</svg>
