<?xml version="1.0" encoding="utf-8"?>
<!-- Generator: Adobe Illustrator 18.0.0, SVG Export Plug-In . SVG Version: 6.00 Build 0)  -->
<!DOCTYPE svg PUBLIC "-//W3C//DTD SVG 1.1//EN" "http://www.w3.org/Graphics/SVG/1.1/DTD/svg11.dtd">
<svg version="1.1" id="Layer_1" xmlns="http://www.w3.org/2000/svg" xmlns:xlink="http://www.w3.org/1999/xlink" x="0px" y="0px"
	 viewBox="0 0 68 32.7" enable-background="new 0 0 68 32.7" xml:space="preserve">
<g>
	<g>
		<g>
			<path fill="#333333" d="M65.6,1.5c-23.1,4-44.8,13.1-63.7,26.9c-1.6,1.2,0.8,1.8,1.9,1.1C22,16.1,42.9,7.1,65.2,3.3
				C66.7,3,67.5,1.1,65.6,1.5L65.6,1.5z"/>
		</g>
	</g>
	<g>
		<g>
			<path fill="#333333" d="M2.1,18.4c-0.1,4.2-0.4,8.4-0.8,12.5c0,0.5,2.8,0.1,2.9-0.8C4.6,26,4.8,21.8,5,17.6
				C5,17.1,2.1,17.5,2.1,18.4L2.1,18.4z"/>
		</g>
	</g>
	<g>
		<g>
			<path fill="#333333" d="M2.6,31.5c6.9-2.2,14-3.5,21.3-3.9c1.6-0.1,2.2-2.2,0.3-2.1c-7.5,0.4-14.9,1.7-22,4
				C0.3,30.1,0.8,32.1,2.6,31.5L2.6,31.5z"/>
		</g>
	</g>
</g>
</svg>
