<?xml version="1.0" encoding="utf-8"?>
<!-- Generator: Adobe Illustrator 18.0.0, SVG Export Plug-In . SVG Version: 6.00 Build 0)  -->
<!DOCTYPE svg PUBLIC "-//W3C//DTD SVG 1.1//EN" "http://www.w3.org/Graphics/SVG/1.1/DTD/svg11.dtd">
<svg version="1.1" id="Layer_1" xmlns="http://www.w3.org/2000/svg" xmlns:xlink="http://www.w3.org/1999/xlink" x="0px" y="0px"
	 viewBox="0 0 47.5 30.8" enable-background="new 0 0 47.5 30.8" xml:space="preserve">
<g>
	<g>
		<g>
			<path fill="#333333" d="M11.4,29.3c0.8-7.7,2.5-13.9,8.7-19.1c7-5.9,16.8-7,25.5-8.2C46.9,1.8,48,0.2,46,0.5
				C37,1.7,28.1,3.1,20.3,7.9c-8.1,5-10.9,12.6-11.8,21.8C8.4,30.8,11.3,30.2,11.4,29.3L11.4,29.3z"/>
		</g>
	</g>
	<g>
		<g>
			<path fill="#333333" d="M0.3,22.5c2.7,2.5,5.3,5,8,7.5c0.5,0.5,3.1-0.6,2.7-1c-2.7-2.5-5.3-5-8-7.5C2.5,21.1,0,22.2,0.3,22.5
				L0.3,22.5z"/>
		</g>
	</g>
	<g>
		<g>
			<path fill="#333333" d="M11.3,29.8c2.8-3,6.3-5.1,10.3-6.2c1.8-0.5,1.2-2.6-0.6-2.1c-4.7,1.4-8.8,3.8-12.2,7.4
				C7.5,30.2,10.3,30.7,11.3,29.8L11.3,29.8z"/>
		</g>
	</g>
</g>
</svg>
